<svg width="24.000000" height="24.000000" viewBox="0 0 24 24" fill="none" xmlns="http://www.w3.org/2000/svg" xmlns:xlink="http://www.w3.org/1999/xlink">
	<desc>
			Created with Pixso.
	</desc>
	<defs/>
	<path id="Union" d="M6.35938 6.96338L5.48242 18.8901C5.41895 19.7593 6.10645 20.5 6.97852 20.5L17.0215 20.5C17.8926 20.5 18.5811 19.7593 18.5176 18.8901L17.6406 6.96338C17.6211 6.70215 17.4033 6.5 17.1416 6.5L15.9951 6.5L15.9951 9L14.4951 9L14.4951 6.5L9.5 6.5L9.5 9L8 9L8 6.5L6.8584 6.5C6.59668 6.5 6.37891 6.70215 6.35938 6.96338ZM8 5L6.8584 5C5.81055 5 4.94043 5.80859 4.86328 6.85352L3.98633 18.7798C3.85938 20.519 5.23535 22 6.97852 22L17.0215 22C18.7646 22 20.1406 20.519 20.0127 18.7803L19.1367 6.85352C19.0596 5.80859 18.1895 5 17.1416 5L15.9951 5L15.9951 4.75C15.9951 3.23096 14.7637 2 13.2451 2L10.75 2C9.23145 2 8 3.23096 8 4.75L8 5ZM9.5 5L9.5 4.75C9.5 4.05957 10.0596 3.5 10.75 3.5L13.2451 3.5C13.9355 3.5 14.4951 4.05957 14.4951 4.75L14.4951 5L9.5 5Z" fill="#E8E9EA" fill-opacity="1.000000" fill-rule="evenodd"/>
</svg>
