<svg width="16.000000" height="20.000000" viewBox="0 0 16 20" fill="none" xmlns="http://www.w3.org/2000/svg" xmlns:xlink="http://www.w3.org/1999/xlink">
	<desc>
			Created with Pixso.
	</desc>
	<defs/>
	<path id="Union" d="M1.85 4.96L0.98 16.88C0.91 17.75 1.6 18.5 2.47 18.5L12.52 18.5C13.39 18.5 14.08 17.75 14.01 16.89L13.14 4.96C13.12 4.7 12.9 4.5 12.64 4.5L11.49 4.5L11.49 7L9.99 7L9.99 4.5L5 4.5L5 7L3.5 7L3.5 4.5L2.35 4.5C2.09 4.5 1.87 4.7 1.85 4.96ZM3.5 3L2.35 3C1.31 3 0.44 3.8 0.36 4.85L-0.52 16.78C-0.65 18.51 0.73 20 2.47 20L12.52 20C14.26 20 15.64 18.51 15.51 16.78L14.63 4.85C14.55 3.8 13.68 3 12.64 3L11.49 3L11.49 2.75C11.49 1.23 10.26 0 8.74 0L6.25 0C4.73 0 3.5 1.23 3.5 2.75L3.5 3ZM5 3L5 2.75C5 2.05 5.55 1.5 6.25 1.5L8.74 1.5C9.43 1.5 9.99 2.05 9.99 2.75L9.99 3L5 3Z" fill="#A5A8AD" fill-opacity="1.000000" fill-rule="evenodd"/>
</svg>
