<svg width="20.000000" height="15.000000" viewBox="0 0 20 15" fill="none" xmlns="http://www.w3.org/2000/svg" xmlns:xlink="http://www.w3.org/1999/xlink">
	<desc>
			Created with Pixso.
	</desc>
	<defs/>
	<path id="Union" d="M1 2.5C1.82 2.5 2.5 1.82 2.5 1C2.5 0.17 1.82 -0.5 1 -0.5C0.17 -0.5 -0.5 0.17 -0.5 1C-0.5 1.82 0.17 2.5 1 2.5ZM4.5 0.25L19.5 0.25L19.5 1.75L4.5 1.75L4.5 0.25ZM19.5 6.25L4.5 6.25L4.5 7.75L19.5 7.75L19.5 6.25ZM19.5 12.25L4.5 12.25L4.5 13.75L19.5 13.75L19.5 12.25ZM2.5 7C2.5 7.82 1.82 8.5 1 8.5C0.17 8.5 -0.5 7.82 -0.5 7C-0.5 6.17 0.17 5.5 1 5.5C1.82 5.5 2.5 6.17 2.5 7ZM1 14.5C1.82 14.5 2.5 13.82 2.5 13C2.5 12.17 1.82 11.5 1 11.5C0.17 11.5 -0.5 12.17 -0.5 13C-0.5 13.82 0.17 14.5 1 14.5Z" fill="#A5A8AD" fill-opacity="1.000000" fill-rule="evenodd"/>
</svg>
