<svg width="18.000000" height="16.000000" viewBox="0 0 18 16" fill="none" xmlns="http://www.w3.org/2000/svg" xmlns:xlink="http://www.w3.org/1999/xlink">
	<desc>
			Created with Pixso.
	</desc>
	<defs/>
	<path id="Union" d="M0 4.97C0 2.24 2.16 0 4.87 0C6.29 0 7.51 0.74 8.36 1.76C8.6 2.05 8.81 2.36 9 2.69C9.18 2.36 9.39 2.05 9.63 1.76C10.48 0.74 11.7 0 13.12 0C15.83 0 17.99 2.24 17.99 4.97C17.99 7.4 16.48 9.54 14.76 11.31C13.44 12.67 11.89 13.9 10.59 14.92C10.19 15.24 9.81 15.54 9.47 15.82C9.19 16.05 8.79 16.05 8.52 15.82C8.18 15.54 7.8 15.24 7.4 14.92C6.1 13.9 4.55 12.67 3.23 11.31C1.5 9.54 0 7.4 0 4.97ZM9.75 5.5L8.25 5.5C8.25 4.52 7.85 3.5 7.21 2.72C6.57 1.95 5.73 1.5 4.87 1.5C3.02 1.5 1.5 3.03 1.5 4.97C1.5 6.78 2.64 8.56 4.3 10.26C5.55 11.54 6.99 12.69 8.27 13.7C8.52 13.9 8.76 14.09 8.99 14.28C9.23 14.09 9.47 13.9 9.71 13.7C11 12.69 12.44 11.54 13.69 10.26C15.35 8.56 16.49 6.78 16.49 4.97C16.49 3.03 14.96 1.5 13.12 1.5C12.26 1.5 11.42 1.95 10.78 2.72C10.14 3.5 9.75 4.52 9.75 5.5Z" fill="#A5A8AD" fill-opacity="1.000000" fill-rule="evenodd"/>
</svg>
