<svg width="20.000000" height="16.000000" viewBox="0 0 20 16" fill="none" xmlns="http://www.w3.org/2000/svg" xmlns:xlink="http://www.w3.org/1999/xlink">
	<desc>
			Created with Pixso.
	</desc>
	<defs/>
	<path id="Union" d="M1.87 12.97C1.37 9.67 1.37 6.32 1.87 3.02C1.95 2.46 2.4 2.03 2.95 1.96C7.66 1.34 12.33 1.34 17.04 1.96C17.59 2.03 18.04 2.46 18.12 3.02C18.62 6.32 18.62 9.67 18.12 12.97C18.04 13.53 17.59 13.96 17.04 14.03C12.33 14.65 7.66 14.65 2.95 14.03C2.4 13.96 1.95 13.53 1.87 12.97ZM17.24 15.52C12.39 16.15 7.6 16.15 2.75 15.52C1.54 15.36 0.57 14.41 0.38 13.19C-0.13 9.75 -0.13 6.24 0.38 2.8C0.57 1.58 1.54 0.63 2.75 0.47C7.6 -0.16 12.39 -0.16 17.24 0.47C18.45 0.63 19.42 1.58 19.61 2.8C20.12 6.24 20.12 9.75 19.61 13.19C19.42 14.41 18.45 15.36 17.24 15.52ZM8.63 4.35C8.4 4.21 8.11 4.21 7.87 4.34C7.64 4.48 7.5 4.72 7.5 5L7.5 11C7.5 11.27 7.64 11.51 7.87 11.65C8.11 11.78 8.4 11.78 8.63 11.64L13.65 8.64C13.87 8.5 14.01 8.26 14.01 8C14.01 7.73 13.87 7.49 13.65 7.35L8.63 4.35ZM9 9.67L9 6.32L11.8 8L9 9.67Z" fill="#E8E9EA" fill-opacity="1.000000" fill-rule="evenodd"/>
</svg>
