<svg width="20.000000" height="13.000000" viewBox="0 0 20 13" fill="none" xmlns="http://www.w3.org/2000/svg" xmlns:xlink="http://www.w3.org/1999/xlink">
	<desc>
			Created with Pixso.
	</desc>
	<defs/>
	<path id="Vector" d="M9.45 1.5C9.52 1.5 9.6 1.5 9.68 1.5C10.16 1.51 10.56 1.54 10.88 1.62C11 1.64 11.1 1.68 11.18 1.73C11.26 1.79 11.32 1.86 11.36 1.94C11.4 2.04 11.43 2.13 11.45 2.22C11.47 2.33 11.48 2.45 11.48 2.62C11.48 2.8 11.48 2.95 11.47 3.12C11.46 3.27 11.46 3.47 11.45 3.73C11.44 4 11.44 4.25 11.44 4.46C11.44 4.54 11.44 4.65 11.43 4.84C11.42 5.02 11.42 5.16 11.43 5.27C11.43 5.37 11.44 5.48 11.46 5.62C11.51 6.02 11.67 6.17 11.86 6.17C12.05 6.17 12.27 6.04 12.48 5.83C12.6 5.69 12.76 5.51 12.94 5.23C13.12 4.96 13.32 4.64 13.54 4.29C13.89 3.67 14.21 2.93 14.49 2.21C14.57 2.02 14.76 1.86 15.11 1.86L17.75 1.86C18.16 1.86 18.37 1.9 18.46 2.12C18.55 2.35 18.2 3.44 17.18 4.81C17.02 5 16.83 5.25 16.59 5.56C16.13 6.14 15.86 6.54 15.79 6.71C15.54 7.31 16.27 7.82 16.63 8.15C16.9 8.4 18.14 9.73 18.37 10.14C18.48 10.33 18.54 10.59 18.49 10.8C18.44 10.98 18.19 11.14 17.75 11.14C17.55 11.14 17.34 11.14 17.11 11.14C16.36 11.14 15.51 11.13 15.11 11.13C14.56 11.13 14.07 10.63 13.72 10.27C13.48 10.02 13.28 9.79 13.11 9.58C12.94 9.37 12.76 9.19 12.57 9.07C12.43 8.96 12.31 8.92 12.2 8.92C11.98 8.92 11.8 9.1 11.66 9.36C11.6 9.45 11.55 9.62 11.51 9.82C11.47 10.02 11.45 10.25 11.45 10.51C11.45 10.6 11.44 10.67 11.42 10.75C11.35 11.01 11.11 11.12 10.85 11.14L9.73 11.14C8.88 11.14 8.11 10.96 7.36 10.53C7.03 10.34 6.72 10.13 6.45 9.93C6.18 9.73 5.97 9.57 5.82 9.42C5.66 9.3 5.51 9.13 5.36 8.96C5.26 8.85 5.05 8.58 4.73 8.15C4.4 7.75 4.09 7.3 3.78 6.83C3.48 6.35 3.11 5.72 2.7 4.95C2.28 4.18 1.9 3.31 1.54 2.47C1.4 2.09 1.66 1.85 2.06 1.85L4.49 1.85C4.73 1.85 5 2.04 5.09 2.29C5.48 3.26 5.95 4.29 6.5 5.17C6.66 5.43 6.8 5.63 6.93 5.79C7.05 5.93 7.18 6.05 7.3 6.13C7.43 6.22 7.53 6.27 7.63 6.27C7.92 6.27 8.06 5.9 8.11 5.57C8.24 4.76 8.28 3.89 8.11 3.1C8 2.56 7.76 2.28 7.18 2.18C7.1 2.17 7.12 2.11 7.22 1.97C7.32 1.87 7.43 1.78 7.56 1.7C7.85 1.57 8.48 1.5 9.45 1.5ZM9.45 0C8.19 0 7.43 0.11 6.9 0.37C6.58 0.53 6.33 0.72 6.11 0.97L6.09 1L6.06 1.03C6.06 1.04 6.05 1.04 6.05 1.05C5.65 0.62 5.08 0.35 4.49 0.35L2.06 0.35C1.34 0.35 0.71 0.65 0.33 1.19C-0.03 1.71 -0.1 2.37 0.14 3L0.15 3.03L0.16 3.06C0.53 3.91 0.93 4.83 1.38 5.66C1.82 6.48 2.2 7.13 2.53 7.64C2.86 8.14 3.19 8.62 3.53 9.08C3.98 9.66 4.14 9.87 4.23 9.96C4.42 10.18 4.62 10.37 4.79 10.54C4.97 10.72 5.23 10.93 5.58 11.17C5.89 11.4 6.24 11.62 6.62 11.85C7.58 12.39 8.59 12.66 9.73 12.66L10.84 12.66L10.9 12.66L10.96 12.65C11.78 12.59 12.44 12.13 12.74 11.46C13.19 11.92 13.98 12.65 15.09 12.65C15.26 12.65 15.5 12.65 15.78 12.65C16.18 12.65 16.65 12.66 17.09 12.66C17.32 12.66 17.55 12.66 17.75 12.66C18.82 12.66 19.68 12.09 19.92 11.2C20.08 10.62 19.97 9.94 19.65 9.4C19.22 8.65 17.67 7.1 17.65 7.09C17.59 7.03 17.52 6.96 17.44 6.89C17.52 6.79 17.62 6.65 17.75 6.48C18 6.15 18.2 5.9 18.34 5.7C18.95 4.89 20.32 2.87 19.82 1.59C19.5 0.77 18.79 0.36 17.71 0.36L15.07 0.36C14.15 0.36 13.38 0.86 13.06 1.66C13.01 1.81 12.96 1.92 12.91 2.06C12.9 2.02 12.9 1.96 12.89 1.92C12.85 1.72 12.78 1.53 12.7 1.34C12.54 0.97 12.28 0.67 11.95 0.46C11.74 0.33 11.49 0.22 11.22 0.15C10.79 0.06 10.3 0.01 9.7 0L9.45 0Z" fill="#E8E9EA" fill-opacity="1.000000" fill-rule="nonzero"/>
</svg>
