<svg width="20.000000" height="19.000000" viewBox="0 0 20 19" fill="none" xmlns="http://www.w3.org/2000/svg" xmlns:xlink="http://www.w3.org/1999/xlink">
	<desc>
			Created with Pixso.
	</desc>
	<defs/>
	<path id="Union" d="M18.33 1.71L15.38 16L9.81 10.48L13.23 7.08L14.01 6.31L14.54 5.79L14.63 5.69C15.05 5.28 14.54 4.62 14.03 4.9L13.92 4.97L13.27 5.34L12.32 5.87L8.19 8.21L7.34 8.7L2.4 6.38L18.33 1.71ZM7.58 10.46C7.68 10.51 7.78 10.58 7.86 10.66L14.97 17.72C15.54 18.27 16.5 17.99 16.66 17.21L19.97 1.2C20.12 0.46 19.43 -0.18 18.71 0.04L0.71 5.31C-0.17 5.57 -0.26 6.78 0.57 7.17L7.58 10.46Z" fill="#E8E9EA" fill-opacity="1.000000" fill-rule="evenodd"/>
</svg>
