<svg width="20.000000" height="20.000000" viewBox="0 0 20 20" fill="none" xmlns="http://www.w3.org/2000/svg" xmlns:xlink="http://www.w3.org/1999/xlink">
	<desc>
			Created with Pixso.
	</desc>
	<defs/>
	<path id="Union" d="M15.3262 16.6245C17.2617 15.0664 18.5 12.6777 18.5 10C18.5 5.30566 14.6943 1.5 10 1.5C5.30566 1.5 1.5 5.30566 1.5 10C1.5 12.6777 2.73828 15.0664 4.67383 16.6245C5.28418 14.2524 7.4375 12.5 10 12.5C12.5625 12.5 14.7158 14.2524 15.3262 16.6245ZM13.9707 17.5171C13.7324 15.5356 12.0459 14 10 14C7.9541 14 6.26758 15.5356 6.0293 17.5171C7.21387 18.1445 8.56543 18.5 10 18.5C11.4346 18.5 12.7861 18.1445 13.9707 17.5171ZM10 20C15.5225 20 20 15.5229 20 10C20 4.47705 15.5225 0 10 0C4.47754 0 0 4.47705 0 10C0 15.5229 4.47754 20 10 20ZM10 9.5C10.8281 9.5 11.5 8.82861 11.5 8C11.5 7.17139 10.8281 6.5 10 6.5C9.17188 6.5 8.5 7.17139 8.5 8C8.5 8.82861 9.17188 9.5 10 9.5ZM10 11C11.6572 11 13 9.65674 13 8C13 6.34326 11.6572 5 10 5C8.34277 5 7 6.34326 7 8C7 9.65674 8.34277 11 10 11Z" fill="#E8E9EA" fill-opacity="1.000000" fill-rule="evenodd"/>
</svg>
