<svg width="24.000000" height="24.000000" viewBox="0 0 24 24" fill="none" xmlns="http://www.w3.org/2000/svg" xmlns:xlink="http://www.w3.org/1999/xlink">
	<desc>
			Created with Pixso.
	</desc>
	<defs/>
	<path id="Union" d="M17.5 11C17.5 14.5898 14.5898 17.5 11 17.5C7.41016 17.5 4.5 14.5898 4.5 11C4.5 7.41016 7.41016 4.5 11 4.5C14.5898 4.5 17.5 7.41016 17.5 11ZM16.1016 17.1626C14.7168 18.3101 12.9395 19 11 19C6.58203 19 3 15.4185 3 11C3 6.58154 6.58203 3 11 3C15.418 3 19 6.58154 19 11C19 12.939 18.3105 14.7168 17.1621 16.1016L20.999 19.9385L19.9385 20.999L16.1016 17.1626Z" fill="#E8E9EA" fill-opacity="1.000000" fill-rule="evenodd"/>
</svg>
