<svg width="24.000000" height="24.000000" viewBox="0 0 24 24" fill="none" xmlns="http://www.w3.org/2000/svg" xmlns:xlink="http://www.w3.org/1999/xlink">
	<desc>
			Created with Pixso.
	</desc>
	<defs/>
	<path id="Union" d="M3 8.97852C3 6.24658 5.16504 4 7.875 4C9.29004 4 10.5166 4.74854 11.3672 5.76904C11.6045 6.05322 11.8164 6.36377 12 6.69238C12.1826 6.36377 12.3945 6.05322 12.6318 5.76904C13.4814 4.74854 14.708 4 16.124 4C18.833 4 20.998 6.24658 20.998 8.97852C20.998 11.4004 19.4893 13.5483 17.7656 15.3159C16.4434 16.6709 14.8906 17.9019 13.5947 18.9297C13.1914 19.249 12.8135 19.5493 12.4746 19.8271C12.1982 20.0537 11.7998 20.0537 11.5234 19.8271C11.1846 19.5493 10.8066 19.249 10.4033 18.9297C9.10742 17.9019 7.55469 16.6709 6.23242 15.3159C4.50879 13.5483 3 11.4004 3 8.97852ZM12.75 9.5L11.25 9.5C11.25 8.521 10.8584 7.50049 10.2158 6.72949C9.57324 5.95898 8.7373 5.5 7.875 5.5C6.02832 5.5 4.5 7.03955 4.5 8.97852C4.5 10.7842 5.64258 12.563 7.30664 14.2686C8.55469 15.5479 9.99512 16.6904 11.2793 17.709C11.5254 17.9043 11.7666 18.0952 11.999 18.2817C12.2314 18.0952 12.4727 17.9043 12.7188 17.709C14.0029 16.6904 15.4434 15.5479 16.6914 14.2686C18.3555 12.563 19.498 10.7842 19.498 8.97852C19.498 7.03955 17.9697 5.5 16.124 5.5C15.2607 5.5 14.4258 5.95898 13.7842 6.72949C13.1416 7.50049 12.75 8.52051 12.75 9.5Z" fill="#E8E9EA" fill-opacity="1.000000" fill-rule="evenodd"/>
</svg>
