<svg width="20.000000" height="19.000000" viewBox="0 0 20 19" fill="none" xmlns="http://www.w3.org/2000/svg" xmlns:xlink="http://www.w3.org/1999/xlink">
	<desc>
			Created with Pixso.
	</desc>
	<defs/>
	<path id="Union" d="M15.99 7.98L15.01 8.34L15.01 9.38L15.01 15C15.01 15.82 14.34 16.5 13.51 16.5L12.5 16.5L12.5 16.5L12.5 11C12.5 9.89 11.6 9 10.5 9L8.5 9C7.39 9 6.5 9.89 6.5 11L6.5 16.5L6.5 16.5L5.49 16.5C4.66 16.5 3.99 15.82 3.99 15L3.99 9.38L3.99 8.34L3.01 7.98L1.54 7.43L9.5 1.61L17.45 7.43L15.99 7.98ZM18.84 8.52L16.51 9.38L16.51 15C16.51 16.65 15.17 18 13.51 18L5.49 18C3.83 18 2.49 16.65 2.49 15L2.49 9.38L0.15 8.51C-0.6 8.24 -0.74 7.24 -0.09 6.77L8.91 0.19C9.26 -0.07 9.74 -0.07 10.09 0.19L19.08 6.77C19.73 7.24 19.59 8.24 18.84 8.52ZM8.5 10.5L10.5 10.5C10.77 10.5 11 10.72 11 11L11 16.5L8 16.5L8 11C8 10.72 8.22 10.5 8.5 10.5Z" fill="#E8E9EA" fill-opacity="1.000000" fill-rule="evenodd"/>
</svg>
