<svg width="20.000000" height="20.000000" viewBox="0 0 20 20" fill="none" xmlns="http://www.w3.org/2000/svg" xmlns:xlink="http://www.w3.org/1999/xlink">
	<desc>
			Created with Pixso.
	</desc>
	<defs/>
	<path id="Union" d="M18.5 10C18.5 14.69 14.69 18.5 10 18.5C5.3 18.5 1.5 14.69 1.5 10C1.5 5.3 5.3 1.5 10 1.5C14.69 1.5 18.5 5.3 18.5 10ZM20 10C20 15.52 15.52 20 10 20C4.47 20 0 15.52 0 10C0 4.47 4.47 0 10 0C15.52 0 20 4.47 20 10ZM10.96 5.2L10.96 7.04L9.03 7.04L9.03 5.2L10.96 5.2ZM9.11 15L9.11 8.5L10.88 8.5L10.88 15L9.11 15Z" fill="#A5A8AD" fill-opacity="1.000000" fill-rule="evenodd"/>
</svg>
