<svg width="197.000000" height="50.000000" viewBox="0 0 197 50" fill="none" xmlns="http://www.w3.org/2000/svg" xmlns:xlink="http://www.w3.org/1999/xlink">
	<desc>
			Created with Pixso.
	</desc>
	<defs>
		<clipPath id="clip14_87091">
			<rect id="Rostelecom" width="197.000000" height="50.000000" fill="white" fill-opacity="0"/>
		</clipPath>
	</defs>
	<g clip-path="url(#clip14_87091)">
		<path id="Vector" d="M23.8701 50L3.46875 50C1.99512 50 1.12793 48.6826 1.12793 47.5317C1.12793 46.8506 1.4043 46.2339 1.85059 45.7866L10.7539 36.8838L23.8701 50Z" fill="#FF4F12" fill-opacity="1.000000" fill-rule="nonzero"/>
		<path id="Vector" d="M3.46875 50C1.92773 50 0.00292969 48.7681 0.00292969 46.3188L0.00292969 18.8921C0.00292969 15.186 -0.186523 12.5791 2.46094 9.93213L12.3916 0L30.0029 17.6392L1.85059 45.7871C1.4043 46.2339 1.12793 46.8501 1.12793 47.5322C1.12793 48.6831 1.99512 50 3.46875 50Z" fill="#7700FF" fill-opacity="1.000000" fill-rule="nonzero"/>
		<path id="Woodmark Ru" d="M155.441 35.7642L162.285 43.5869L157.84 43.5869L152.547 37.5571L152.547 43.5869L148.861 43.5869L148.861 28.9995L152.547 28.9995L152.547 34.2935L157.751 28.9995L162.108 28.9995L155.441 35.7642ZM45.1826 32.9409C47.8721 32.9409 49.1006 31.647 49.1006 29.7061C49.1006 27.7651 47.8721 26.4707 45.1826 26.4707L39.8604 26.4707L39.8604 32.9409L45.1826 32.9409ZM45.2998 23C49.9199 23 52.9619 25.3813 52.9619 29.7051C52.9619 34.0288 49.9199 36.4111 45.2998 36.4111L39.8604 36.4111L39.8604 43.5869L36 43.5869L36 23L45.2998 23ZM61.6738 40.5278C63.8379 40.5278 65.8555 38.9697 65.8555 36.293C65.8555 33.6162 63.8379 32.0581 61.6738 32.0581C59.5107 32.0581 57.4922 33.6172 57.4922 36.293C57.4922 38.9697 59.5107 40.5278 61.6738 40.5278ZM61.6738 28.5884C65.6514 28.5884 69.5986 31.1763 69.5986 36.2939C69.5986 41.4121 65.6514 43.999 61.6738 43.999C57.6963 43.999 53.749 41.4121 53.749 36.2939C53.749 31.1763 57.6963 28.5884 61.6738 28.5884ZM79.0068 40.5293C76.7842 40.5293 75.1465 38.9116 75.1465 36.2939C75.1465 33.7061 76.8418 32.0591 79.0068 32.0591C80.3223 32.0591 81.4629 32.6772 82.3701 34.0586L85.5283 32.2358C84.4746 29.9712 82.1943 28.5894 79.0361 28.5894C74.9131 28.5894 71.4043 31.6479 71.4043 36.2939C71.4043 40.9414 74.7383 44 79.0361 44C82.1357 44 84.2129 42.5879 85.6748 40.0889L82.6328 38.4126C81.7549 39.646 80.8193 40.5293 79.0068 40.5293ZM118.239 37.2646C118.063 39.5 117.624 40 116.864 40C116.345 40 116.101 39.9424 115.745 39.8486L115.763 43.623C115.763 43.623 116.221 43.7642 117.068 43.7642C120.197 43.7642 121.368 41.7344 121.66 37.4116L122.011 32.3232L126.163 32.3232L126.163 43.5576L129.848 43.5576L129.848 28.9995L118.853 28.9995L118.239 37.2646ZM111.442 34.3521C111.092 32.5288 109.718 31.4111 107.671 31.4111C105.741 31.4111 104.278 32.7056 103.752 34.3521L111.442 34.3521ZM107.787 28.5884C111.939 28.5884 114.864 31.6177 114.864 35.8818L114.864 37.1763L103.692 37.1763C103.926 39.4116 105.505 40.8223 107.67 40.8223C109.629 40.8223 110.447 39.9697 111.354 38.8228L114.279 40.2935C112.816 42.7925 110.799 43.999 107.61 43.999C103.575 43.999 100.154 40.9111 100.154 36.293C100.155 31.6763 103.576 28.5884 107.787 28.5884ZM143.198 34.3521C142.848 32.5288 141.473 31.4111 139.427 31.4111C137.497 31.4111 136.034 32.7056 135.508 34.3521L143.198 34.3521ZM139.544 28.5884C143.696 28.5884 146.621 31.6177 146.621 35.8818L146.621 37.1763L135.449 37.1763C135.683 39.4116 137.262 40.8223 139.427 40.8223C141.386 40.8223 142.205 39.9697 143.111 38.8228L146.036 40.2935C144.573 42.7925 142.556 43.999 139.367 43.999C135.332 43.999 131.911 40.9111 131.911 36.293C131.911 31.6763 135.332 28.5884 139.544 28.5884ZM86.8203 32.2349L91.1484 32.2349L91.1484 43.5869L94.833 43.5869L94.833 32.2349L99.1611 32.2349L99.1611 28.9995L86.8203 28.9995L86.8203 32.2349ZM169.601 40.5293C171.764 40.5293 173.782 38.9712 173.782 36.2939C173.782 33.6172 171.764 32.0591 169.601 32.0591C167.437 32.0591 165.419 33.6187 165.419 36.2939C165.419 38.9697 167.436 40.5293 169.601 40.5293ZM169.601 28.5884C173.578 28.5884 177.525 31.1763 177.525 36.2939C177.525 41.4121 173.578 44 169.601 44C165.623 44 161.676 41.4121 161.676 36.2939C161.676 31.1763 165.623 28.5884 169.601 28.5884ZM192.186 28.9976L188.187 39.2139L184.188 28.9976L179.371 28.9976L179.371 43.5586L182.873 43.5586L182.873 34.3398L186.756 43.5586L189.615 43.5586L193.498 34.3398L193.498 43.5586L197 43.5586L197 28.9976L192.186 28.9976Z" fill="#FFFFFF" fill-opacity="1.000000" fill-rule="nonzero"/>
	</g>
</svg>
